<mxfile host="Electron" modified="2023-10-04T11:52:44.729Z" agent="Mozilla/5.0 (Windows NT 10.0; Win64; x64) AppleWebKit/537.36 (KHTML, like Gecko) draw.io/21.8.2 Chrome/114.0.5735.289 Electron/25.8.1 Safari/537.36" etag="MuBFZNObkK2EruBI6fc9" version="21.8.2" type="device">
  <diagram name="Задание №1" id="uE2ZLeaDMEp-7cOYM7Hp">
    <mxGraphModel dx="3446" dy="2334" grid="1" gridSize="10" guides="1" tooltips="1" connect="1" arrows="1" fold="1" page="1" pageScale="1" pageWidth="827" pageHeight="1169" math="0" shadow="0">
      <root>
        <mxCell id="0" />
        <mxCell id="1" parent="0" />
        <mxCell id="9CeFbhL143zoWtGmTaln-1" value="Вырастить репку" style="swimlane;horizontal=0;whiteSpace=wrap;html=1;" parent="1" vertex="1">
          <mxGeometry x="10" width="3300" height="1450" as="geometry" />
        </mxCell>
        <mxCell id="9CeFbhL143zoWtGmTaln-2" value="Дедка" style="swimlane;horizontal=0;whiteSpace=wrap;html=1;" parent="9CeFbhL143zoWtGmTaln-1" vertex="1">
          <mxGeometry x="20" width="3280" height="240" as="geometry" />
        </mxCell>
        <mxCell id="9CeFbhL143zoWtGmTaln-5" style="edgeStyle=orthogonalEdgeStyle;rounded=0;orthogonalLoop=1;jettySize=auto;html=1;entryX=0;entryY=0.5;entryDx=0;entryDy=0;" parent="9CeFbhL143zoWtGmTaln-2" source="9CeFbhL143zoWtGmTaln-3" target="9CeFbhL143zoWtGmTaln-4" edge="1">
          <mxGeometry relative="1" as="geometry" />
        </mxCell>
        <mxCell id="9CeFbhL143zoWtGmTaln-3" value="Месяц май" style="sketch=0;pointerEvents=1;shadow=0;dashed=0;html=1;strokeColor=none;fillColor=#505050;labelPosition=center;verticalLabelPosition=bottom;verticalAlign=top;outlineConnect=0;align=center;shape=mxgraph.office.concepts.clock;" parent="9CeFbhL143zoWtGmTaln-2" vertex="1">
          <mxGeometry x="40" y="77.5" width="45" height="45" as="geometry" />
        </mxCell>
        <mxCell id="9CeFbhL143zoWtGmTaln-7" style="edgeStyle=orthogonalEdgeStyle;rounded=0;orthogonalLoop=1;jettySize=auto;html=1;" parent="9CeFbhL143zoWtGmTaln-2" source="9CeFbhL143zoWtGmTaln-4" target="9CeFbhL143zoWtGmTaln-6" edge="1">
          <mxGeometry relative="1" as="geometry" />
        </mxCell>
        <mxCell id="9CeFbhL143zoWtGmTaln-4" value="Посадить репку" style="rounded=1;whiteSpace=wrap;html=1;" parent="9CeFbhL143zoWtGmTaln-2" vertex="1">
          <mxGeometry x="130" y="70" width="90" height="60" as="geometry" />
        </mxCell>
        <mxCell id="9CeFbhL143zoWtGmTaln-9" style="edgeStyle=orthogonalEdgeStyle;rounded=0;orthogonalLoop=1;jettySize=auto;html=1;entryX=0;entryY=0.5;entryDx=0;entryDy=0;" parent="9CeFbhL143zoWtGmTaln-2" source="9CeFbhL143zoWtGmTaln-6" target="9CeFbhL143zoWtGmTaln-8" edge="1">
          <mxGeometry relative="1" as="geometry" />
        </mxCell>
        <mxCell id="9CeFbhL143zoWtGmTaln-6" value="50 дней" style="sketch=0;pointerEvents=1;shadow=0;dashed=0;html=1;strokeColor=none;fillColor=#505050;labelPosition=center;verticalLabelPosition=bottom;verticalAlign=top;outlineConnect=0;align=center;shape=mxgraph.office.concepts.clock;" parent="9CeFbhL143zoWtGmTaln-2" vertex="1">
          <mxGeometry x="250" y="77.5" width="45" height="45" as="geometry" />
        </mxCell>
        <mxCell id="9CeFbhL143zoWtGmTaln-11" style="edgeStyle=orthogonalEdgeStyle;rounded=0;orthogonalLoop=1;jettySize=auto;html=1;entryX=0;entryY=0.5;entryDx=0;entryDy=0;" parent="9CeFbhL143zoWtGmTaln-2" source="9CeFbhL143zoWtGmTaln-8" target="9CeFbhL143zoWtGmTaln-10" edge="1">
          <mxGeometry relative="1" as="geometry" />
        </mxCell>
        <mxCell id="9CeFbhL143zoWtGmTaln-8" value="Тянуть репку" style="rounded=1;whiteSpace=wrap;html=1;" parent="9CeFbhL143zoWtGmTaln-2" vertex="1">
          <mxGeometry x="330" y="70" width="80" height="60" as="geometry" />
        </mxCell>
        <mxCell id="9CeFbhL143zoWtGmTaln-13" value="" style="edgeStyle=orthogonalEdgeStyle;rounded=0;orthogonalLoop=1;jettySize=auto;html=1;" parent="9CeFbhL143zoWtGmTaln-2" source="9CeFbhL143zoWtGmTaln-10" target="9CeFbhL143zoWtGmTaln-12" edge="1">
          <mxGeometry relative="1" as="geometry" />
        </mxCell>
        <mxCell id="9CeFbhL143zoWtGmTaln-46" style="edgeStyle=orthogonalEdgeStyle;rounded=0;orthogonalLoop=1;jettySize=auto;html=1;entryX=0.5;entryY=0;entryDx=0;entryDy=0;fontSize=12;" parent="9CeFbhL143zoWtGmTaln-2" source="9CeFbhL143zoWtGmTaln-10" target="9CeFbhL143zoWtGmTaln-45" edge="1">
          <mxGeometry relative="1" as="geometry" />
        </mxCell>
        <mxCell id="9CeFbhL143zoWtGmTaln-10" value="Вытянул репку?" style="rhombus;whiteSpace=wrap;html=1;" parent="9CeFbhL143zoWtGmTaln-2" vertex="1">
          <mxGeometry x="450" y="60" width="80" height="80" as="geometry" />
        </mxCell>
        <mxCell id="9CeFbhL143zoWtGmTaln-12" value="" style="ellipse;whiteSpace=wrap;html=1;" parent="9CeFbhL143zoWtGmTaln-2" vertex="1">
          <mxGeometry x="550" y="80" width="40" height="40" as="geometry" />
        </mxCell>
        <mxCell id="9CeFbhL143zoWtGmTaln-45" value="Позвать бабку" style="rounded=1;whiteSpace=wrap;html=1;fontSize=12;" parent="9CeFbhL143zoWtGmTaln-2" vertex="1">
          <mxGeometry x="430" y="160" width="120" height="60" as="geometry" />
        </mxCell>
        <mxCell id="9CeFbhL143zoWtGmTaln-80" value="Посадить репку" style="rounded=1;whiteSpace=wrap;html=1;" parent="9CeFbhL143zoWtGmTaln-2" vertex="1">
          <mxGeometry x="1450" y="50" width="120" height="60" as="geometry" />
        </mxCell>
        <mxCell id="9CeFbhL143zoWtGmTaln-116" value="Тянуть репку" style="rounded=1;whiteSpace=wrap;html=1;" parent="9CeFbhL143zoWtGmTaln-2" vertex="1">
          <mxGeometry x="2060" y="70" width="120" height="60" as="geometry" />
        </mxCell>
        <mxCell id="9CeFbhL143zoWtGmTaln-154" value="Тянуть репку" style="rounded=1;whiteSpace=wrap;html=1;" parent="9CeFbhL143zoWtGmTaln-2" vertex="1">
          <mxGeometry x="2750" y="90" width="120" height="60" as="geometry" />
        </mxCell>
        <mxCell id="9CeFbhL143zoWtGmTaln-14" value="Бабка" style="swimlane;horizontal=0;whiteSpace=wrap;html=1;" parent="9CeFbhL143zoWtGmTaln-1" vertex="1">
          <mxGeometry x="20" y="240" width="3280" height="260" as="geometry" />
        </mxCell>
        <mxCell id="9CeFbhL143zoWtGmTaln-24" style="edgeStyle=orthogonalEdgeStyle;rounded=0;orthogonalLoop=1;jettySize=auto;html=1;entryX=0.5;entryY=0;entryDx=0;entryDy=0;fontSize=50;" parent="9CeFbhL143zoWtGmTaln-14" source="9CeFbhL143zoWtGmTaln-19" target="9CeFbhL143zoWtGmTaln-23" edge="1">
          <mxGeometry relative="1" as="geometry" />
        </mxCell>
        <mxCell id="9CeFbhL143zoWtGmTaln-19" value="&lt;font style=&quot;font-size: 50px;&quot;&gt;&lt;b&gt;+&lt;/b&gt;&lt;/font&gt;" style="rhombus;whiteSpace=wrap;html=1;" parent="9CeFbhL143zoWtGmTaln-14" vertex="1">
          <mxGeometry x="450" y="10" width="80" height="80" as="geometry" />
        </mxCell>
        <mxCell id="9CeFbhL143zoWtGmTaln-23" value="Тянуть репку" style="rounded=1;whiteSpace=wrap;html=1;" parent="9CeFbhL143zoWtGmTaln-14" vertex="1">
          <mxGeometry x="430" y="110" width="120" height="60" as="geometry" />
        </mxCell>
        <mxCell id="9CeFbhL143zoWtGmTaln-61" style="edgeStyle=orthogonalEdgeStyle;rounded=0;orthogonalLoop=1;jettySize=auto;html=1;entryX=0.5;entryY=0;entryDx=0;entryDy=0;fontSize=12;" parent="9CeFbhL143zoWtGmTaln-14" source="9CeFbhL143zoWtGmTaln-49" target="9CeFbhL143zoWtGmTaln-58" edge="1">
          <mxGeometry relative="1" as="geometry" />
        </mxCell>
        <mxCell id="9CeFbhL143zoWtGmTaln-49" value="Тянуть репку" style="rounded=1;whiteSpace=wrap;html=1;" parent="9CeFbhL143zoWtGmTaln-14" vertex="1">
          <mxGeometry x="910" y="-170" width="120" height="60" as="geometry" />
        </mxCell>
        <mxCell id="9CeFbhL143zoWtGmTaln-52" style="edgeStyle=orthogonalEdgeStyle;rounded=0;orthogonalLoop=1;jettySize=auto;html=1;entryX=0;entryY=0.5;entryDx=0;entryDy=0;fontSize=12;" parent="9CeFbhL143zoWtGmTaln-14" target="9CeFbhL143zoWtGmTaln-51" edge="1">
          <mxGeometry relative="1" as="geometry">
            <mxPoint x="1009.8888888888887" y="220.1111111111111" as="sourcePoint" />
          </mxGeometry>
        </mxCell>
        <mxCell id="9CeFbhL143zoWtGmTaln-42" value="&lt;font style=&quot;font-size: 50px;&quot;&gt;&lt;b&gt;+&lt;/b&gt;&lt;/font&gt;" style="rhombus;whiteSpace=wrap;html=1;" parent="9CeFbhL143zoWtGmTaln-14" vertex="1">
          <mxGeometry x="930" y="180" width="80" height="80" as="geometry" />
        </mxCell>
        <mxCell id="9CeFbhL143zoWtGmTaln-59" style="edgeStyle=orthogonalEdgeStyle;rounded=0;orthogonalLoop=1;jettySize=auto;html=1;entryX=0;entryY=0.5;entryDx=0;entryDy=0;fontSize=12;" parent="9CeFbhL143zoWtGmTaln-14" source="9CeFbhL143zoWtGmTaln-51" target="9CeFbhL143zoWtGmTaln-58" edge="1">
          <mxGeometry relative="1" as="geometry" />
        </mxCell>
        <mxCell id="9CeFbhL143zoWtGmTaln-51" value="Тянуть репку" style="rounded=1;whiteSpace=wrap;html=1;" parent="9CeFbhL143zoWtGmTaln-14" vertex="1">
          <mxGeometry x="1031" y="190" width="79" height="60" as="geometry" />
        </mxCell>
        <mxCell id="9CeFbhL143zoWtGmTaln-50" style="edgeStyle=orthogonalEdgeStyle;rounded=0;orthogonalLoop=1;jettySize=auto;html=1;entryX=0.5;entryY=1;entryDx=0;entryDy=0;fontSize=12;" parent="9CeFbhL143zoWtGmTaln-14" target="9CeFbhL143zoWtGmTaln-49" edge="1">
          <mxGeometry relative="1" as="geometry">
            <mxPoint x="970" y="180" as="sourcePoint" />
          </mxGeometry>
        </mxCell>
        <mxCell id="9CeFbhL143zoWtGmTaln-65" style="edgeStyle=orthogonalEdgeStyle;rounded=0;orthogonalLoop=1;jettySize=auto;html=1;exitX=1;exitY=0.5;exitDx=0;exitDy=0;entryX=0;entryY=0.5;entryDx=0;entryDy=0;fontSize=12;" parent="9CeFbhL143zoWtGmTaln-14" source="9CeFbhL143zoWtGmTaln-58" target="9CeFbhL143zoWtGmTaln-63" edge="1">
          <mxGeometry relative="1" as="geometry" />
        </mxCell>
        <mxCell id="9CeFbhL143zoWtGmTaln-58" value="&lt;font style=&quot;font-size: 50px;&quot;&gt;&lt;b&gt;+&lt;/b&gt;&lt;/font&gt;" style="rhombus;whiteSpace=wrap;html=1;" parent="9CeFbhL143zoWtGmTaln-14" vertex="1">
          <mxGeometry x="1131" y="180" width="80" height="80" as="geometry" />
        </mxCell>
        <mxCell id="9CeFbhL143zoWtGmTaln-63" value="" style="ellipse;whiteSpace=wrap;html=1;" parent="9CeFbhL143zoWtGmTaln-14" vertex="1">
          <mxGeometry x="1230.0000000000002" y="199.99999999999994" width="40" height="40" as="geometry" />
        </mxCell>
        <mxCell id="9CeFbhL143zoWtGmTaln-67" style="edgeStyle=orthogonalEdgeStyle;rounded=0;orthogonalLoop=1;jettySize=auto;html=1;entryX=0;entryY=0.5;entryDx=0;entryDy=0;fontSize=12;" parent="9CeFbhL143zoWtGmTaln-14" source="9CeFbhL143zoWtGmTaln-64" target="9CeFbhL143zoWtGmTaln-66" edge="1">
          <mxGeometry relative="1" as="geometry" />
        </mxCell>
        <mxCell id="9CeFbhL143zoWtGmTaln-64" value="" style="ellipse;whiteSpace=wrap;html=1;" parent="9CeFbhL143zoWtGmTaln-14" vertex="1">
          <mxGeometry x="1235.0000000000002" y="205" width="30" height="30" as="geometry" />
        </mxCell>
        <mxCell id="9CeFbhL143zoWtGmTaln-70" style="edgeStyle=orthogonalEdgeStyle;rounded=0;orthogonalLoop=1;jettySize=auto;html=1;entryX=0;entryY=0.5;entryDx=0;entryDy=0;fontSize=12;" parent="9CeFbhL143zoWtGmTaln-14" source="9CeFbhL143zoWtGmTaln-66" target="9CeFbhL143zoWtGmTaln-69" edge="1">
          <mxGeometry relative="1" as="geometry" />
        </mxCell>
        <mxCell id="9CeFbhL143zoWtGmTaln-66" value="Вытянули репку?" style="rhombus;whiteSpace=wrap;html=1;" parent="9CeFbhL143zoWtGmTaln-14" vertex="1">
          <mxGeometry x="1300" y="179.99999999999994" width="80" height="80" as="geometry" />
        </mxCell>
        <mxCell id="9CeFbhL143zoWtGmTaln-69" value="" style="ellipse;whiteSpace=wrap;html=1;" parent="9CeFbhL143zoWtGmTaln-14" vertex="1">
          <mxGeometry x="1410" y="199.99999999999994" width="40" height="40" as="geometry" />
        </mxCell>
        <mxCell id="9CeFbhL143zoWtGmTaln-79" style="edgeStyle=orthogonalEdgeStyle;rounded=0;orthogonalLoop=1;jettySize=auto;html=1;entryX=0;entryY=0.5;entryDx=0;entryDy=0;fontSize=12;" parent="9CeFbhL143zoWtGmTaln-14" source="9CeFbhL143zoWtGmTaln-75" target="9CeFbhL143zoWtGmTaln-78" edge="1">
          <mxGeometry relative="1" as="geometry" />
        </mxCell>
        <mxCell id="9CeFbhL143zoWtGmTaln-75" value="&lt;font style=&quot;font-size: 50px;&quot;&gt;&lt;b&gt;+&lt;/b&gt;&lt;/font&gt;" style="rhombus;whiteSpace=wrap;html=1;" parent="9CeFbhL143zoWtGmTaln-14" vertex="1">
          <mxGeometry x="1470" y="155" width="80" height="80" as="geometry" />
        </mxCell>
        <mxCell id="9CeFbhL143zoWtGmTaln-78" value="Тянуть репку" style="rounded=1;whiteSpace=wrap;html=1;" parent="9CeFbhL143zoWtGmTaln-14" vertex="1">
          <mxGeometry x="1590" y="165" width="120" height="60" as="geometry" />
        </mxCell>
        <mxCell id="9CeFbhL143zoWtGmTaln-82" value="&lt;font style=&quot;font-size: 50px;&quot;&gt;&lt;b&gt;+&lt;/b&gt;&lt;/font&gt;" style="rhombus;whiteSpace=wrap;html=1;" parent="9CeFbhL143zoWtGmTaln-14" vertex="1">
          <mxGeometry x="1750" y="155" width="80" height="80" as="geometry" />
        </mxCell>
        <mxCell id="9CeFbhL143zoWtGmTaln-114" value="Тянуть репку" style="rounded=1;whiteSpace=wrap;html=1;" parent="9CeFbhL143zoWtGmTaln-14" vertex="1">
          <mxGeometry x="2130" y="120" width="120" height="60" as="geometry" />
        </mxCell>
        <mxCell id="9CeFbhL143zoWtGmTaln-153" style="edgeStyle=orthogonalEdgeStyle;rounded=0;orthogonalLoop=1;jettySize=auto;html=1;exitX=1;exitY=0.5;exitDx=0;exitDy=0;entryX=0;entryY=0.5;entryDx=0;entryDy=0;fontSize=12;" parent="9CeFbhL143zoWtGmTaln-14" source="9CeFbhL143zoWtGmTaln-150" target="9CeFbhL143zoWtGmTaln-152" edge="1">
          <mxGeometry relative="1" as="geometry" />
        </mxCell>
        <mxCell id="9CeFbhL143zoWtGmTaln-150" value="&lt;font style=&quot;font-size: 50px;&quot;&gt;&lt;b&gt;+&lt;/b&gt;&lt;/font&gt;" style="rhombus;whiteSpace=wrap;html=1;" parent="9CeFbhL143zoWtGmTaln-14" vertex="1">
          <mxGeometry x="2770" y="120" width="80" height="80" as="geometry" />
        </mxCell>
        <mxCell id="9CeFbhL143zoWtGmTaln-157" style="edgeStyle=orthogonalEdgeStyle;rounded=0;orthogonalLoop=1;jettySize=auto;html=1;entryX=0;entryY=0.5;entryDx=0;entryDy=0;fontSize=12;" parent="9CeFbhL143zoWtGmTaln-14" source="9CeFbhL143zoWtGmTaln-152" target="9CeFbhL143zoWtGmTaln-156" edge="1">
          <mxGeometry relative="1" as="geometry" />
        </mxCell>
        <mxCell id="9CeFbhL143zoWtGmTaln-152" value="Тянуть репку" style="rounded=1;whiteSpace=wrap;html=1;" parent="9CeFbhL143zoWtGmTaln-14" vertex="1">
          <mxGeometry x="2870" y="130" width="120" height="60" as="geometry" />
        </mxCell>
        <mxCell id="9CeFbhL143zoWtGmTaln-156" value="&lt;font style=&quot;font-size: 50px;&quot;&gt;&lt;b&gt;+&lt;/b&gt;&lt;/font&gt;" style="rhombus;whiteSpace=wrap;html=1;" parent="9CeFbhL143zoWtGmTaln-14" vertex="1">
          <mxGeometry x="3090" y="120" width="80" height="80" as="geometry" />
        </mxCell>
        <mxCell id="9CeFbhL143zoWtGmTaln-28" style="edgeStyle=orthogonalEdgeStyle;rounded=0;orthogonalLoop=1;jettySize=auto;html=1;entryX=0;entryY=0.5;entryDx=0;entryDy=0;fontSize=50;" parent="9CeFbhL143zoWtGmTaln-1" source="9CeFbhL143zoWtGmTaln-19" target="9CeFbhL143zoWtGmTaln-27" edge="1">
          <mxGeometry relative="1" as="geometry" />
        </mxCell>
        <mxCell id="9CeFbhL143zoWtGmTaln-48" value="" style="edgeStyle=orthogonalEdgeStyle;rounded=0;orthogonalLoop=1;jettySize=auto;html=1;fontSize=12;" parent="9CeFbhL143zoWtGmTaln-1" source="9CeFbhL143zoWtGmTaln-45" target="9CeFbhL143zoWtGmTaln-19" edge="1">
          <mxGeometry relative="1" as="geometry" />
        </mxCell>
        <mxCell id="9CeFbhL143zoWtGmTaln-27" value="Тянуть репку" style="rounded=1;whiteSpace=wrap;html=1;" parent="9CeFbhL143zoWtGmTaln-1" vertex="1">
          <mxGeometry x="687" y="70" width="120" height="60" as="geometry" />
        </mxCell>
        <mxCell id="9CeFbhL143zoWtGmTaln-34" style="edgeStyle=orthogonalEdgeStyle;rounded=0;orthogonalLoop=1;jettySize=auto;html=1;entryX=0;entryY=0.5;entryDx=0;entryDy=0;fontSize=50;" parent="9CeFbhL143zoWtGmTaln-1" source="9CeFbhL143zoWtGmTaln-25" target="9CeFbhL143zoWtGmTaln-32" edge="1">
          <mxGeometry relative="1" as="geometry" />
        </mxCell>
        <mxCell id="9CeFbhL143zoWtGmTaln-25" value="&lt;font style=&quot;font-size: 50px;&quot;&gt;&lt;b&gt;+&lt;/b&gt;&lt;/font&gt;" style="rhombus;whiteSpace=wrap;html=1;" parent="9CeFbhL143zoWtGmTaln-1" vertex="1">
          <mxGeometry x="640" y="340" width="80" height="80" as="geometry" />
        </mxCell>
        <mxCell id="9CeFbhL143zoWtGmTaln-37" style="edgeStyle=orthogonalEdgeStyle;rounded=0;orthogonalLoop=1;jettySize=auto;html=1;entryX=0;entryY=0.5;entryDx=0;entryDy=0;fontSize=12;" parent="9CeFbhL143zoWtGmTaln-1" source="9CeFbhL143zoWtGmTaln-32" target="9CeFbhL143zoWtGmTaln-36" edge="1">
          <mxGeometry relative="1" as="geometry" />
        </mxCell>
        <mxCell id="9CeFbhL143zoWtGmTaln-32" value="" style="ellipse;whiteSpace=wrap;html=1;" parent="9CeFbhL143zoWtGmTaln-1" vertex="1">
          <mxGeometry x="750" y="359.99999999999994" width="40" height="40" as="geometry" />
        </mxCell>
        <mxCell id="9CeFbhL143zoWtGmTaln-33" value="" style="ellipse;whiteSpace=wrap;html=1;" parent="9CeFbhL143zoWtGmTaln-1" vertex="1">
          <mxGeometry x="755" y="365" width="30" height="30" as="geometry" />
        </mxCell>
        <mxCell id="9CeFbhL143zoWtGmTaln-39" style="edgeStyle=orthogonalEdgeStyle;rounded=0;orthogonalLoop=1;jettySize=auto;html=1;entryX=0;entryY=0.5;entryDx=0;entryDy=0;fontSize=12;" parent="9CeFbhL143zoWtGmTaln-1" source="9CeFbhL143zoWtGmTaln-36" target="9CeFbhL143zoWtGmTaln-38" edge="1">
          <mxGeometry relative="1" as="geometry" />
        </mxCell>
        <mxCell id="9CeFbhL143zoWtGmTaln-41" style="edgeStyle=orthogonalEdgeStyle;rounded=0;orthogonalLoop=1;jettySize=auto;html=1;exitX=0.5;exitY=1;exitDx=0;exitDy=0;entryX=0.5;entryY=0;entryDx=0;entryDy=0;fontSize=12;" parent="9CeFbhL143zoWtGmTaln-1" source="9CeFbhL143zoWtGmTaln-36" target="9CeFbhL143zoWtGmTaln-40" edge="1">
          <mxGeometry relative="1" as="geometry" />
        </mxCell>
        <mxCell id="9CeFbhL143zoWtGmTaln-36" value="&lt;font style=&quot;font-size: 12px;&quot;&gt;Вытянули репку?&lt;/font&gt;" style="rhombus;whiteSpace=wrap;html=1;" parent="9CeFbhL143zoWtGmTaln-1" vertex="1">
          <mxGeometry x="807" y="339.99999999999994" width="80" height="80" as="geometry" />
        </mxCell>
        <mxCell id="9CeFbhL143zoWtGmTaln-38" value="" style="ellipse;whiteSpace=wrap;html=1;" parent="9CeFbhL143zoWtGmTaln-1" vertex="1">
          <mxGeometry x="920" y="359.99999999999994" width="40" height="40" as="geometry" />
        </mxCell>
        <mxCell id="9CeFbhL143zoWtGmTaln-54" style="edgeStyle=orthogonalEdgeStyle;rounded=0;orthogonalLoop=1;jettySize=auto;html=1;entryX=0;entryY=0.5;entryDx=0;entryDy=0;fontSize=12;" parent="9CeFbhL143zoWtGmTaln-1" source="9CeFbhL143zoWtGmTaln-40" target="9CeFbhL143zoWtGmTaln-42" edge="1">
          <mxGeometry relative="1" as="geometry" />
        </mxCell>
        <mxCell id="9CeFbhL143zoWtGmTaln-40" value="Позвать внучку" style="rounded=1;whiteSpace=wrap;html=1;fontSize=12;" parent="9CeFbhL143zoWtGmTaln-1" vertex="1">
          <mxGeometry x="787" y="430" width="120" height="60" as="geometry" />
        </mxCell>
        <mxCell id="9CeFbhL143zoWtGmTaln-26" style="edgeStyle=orthogonalEdgeStyle;rounded=0;orthogonalLoop=1;jettySize=auto;html=1;entryX=0;entryY=0.5;entryDx=0;entryDy=0;fontSize=50;" parent="9CeFbhL143zoWtGmTaln-1" source="9CeFbhL143zoWtGmTaln-23" target="9CeFbhL143zoWtGmTaln-25" edge="1">
          <mxGeometry relative="1" as="geometry" />
        </mxCell>
        <mxCell id="9CeFbhL143zoWtGmTaln-29" style="edgeStyle=orthogonalEdgeStyle;rounded=0;orthogonalLoop=1;jettySize=auto;html=1;entryX=0.5;entryY=0;entryDx=0;entryDy=0;fontSize=50;" parent="9CeFbhL143zoWtGmTaln-1" source="9CeFbhL143zoWtGmTaln-27" target="9CeFbhL143zoWtGmTaln-25" edge="1">
          <mxGeometry relative="1" as="geometry" />
        </mxCell>
        <mxCell id="9CeFbhL143zoWtGmTaln-55" value="Внучка" style="swimlane;horizontal=0;whiteSpace=wrap;html=1;fontSize=12;startSize=23;" parent="9CeFbhL143zoWtGmTaln-1" vertex="1">
          <mxGeometry x="20" y="500" width="3280" height="200" as="geometry" />
        </mxCell>
        <mxCell id="9CeFbhL143zoWtGmTaln-56" value="Тянуть репку" style="rounded=1;whiteSpace=wrap;html=1;" parent="9CeFbhL143zoWtGmTaln-55" vertex="1">
          <mxGeometry x="930.5" y="25" width="79" height="60" as="geometry" />
        </mxCell>
        <mxCell id="9CeFbhL143zoWtGmTaln-74" style="edgeStyle=orthogonalEdgeStyle;rounded=0;orthogonalLoop=1;jettySize=auto;html=1;entryX=0;entryY=0.5;entryDx=0;entryDy=0;fontSize=12;" parent="9CeFbhL143zoWtGmTaln-55" source="9CeFbhL143zoWtGmTaln-71" target="9CeFbhL143zoWtGmTaln-73" edge="1">
          <mxGeometry relative="1" as="geometry" />
        </mxCell>
        <mxCell id="9CeFbhL143zoWtGmTaln-71" value="Позвать жучку" style="rounded=1;whiteSpace=wrap;html=1;fontSize=12;" parent="9CeFbhL143zoWtGmTaln-55" vertex="1">
          <mxGeometry x="1295" y="55" width="90" height="60" as="geometry" />
        </mxCell>
        <mxCell id="9CeFbhL143zoWtGmTaln-87" style="edgeStyle=orthogonalEdgeStyle;rounded=0;orthogonalLoop=1;jettySize=auto;html=1;entryX=0;entryY=0.5;entryDx=0;entryDy=0;fontSize=12;" parent="9CeFbhL143zoWtGmTaln-55" source="9CeFbhL143zoWtGmTaln-73" target="9CeFbhL143zoWtGmTaln-86" edge="1">
          <mxGeometry relative="1" as="geometry" />
        </mxCell>
        <mxCell id="9CeFbhL143zoWtGmTaln-73" value="&lt;font style=&quot;font-size: 50px;&quot;&gt;&lt;b&gt;+&lt;/b&gt;&lt;/font&gt;" style="rhombus;whiteSpace=wrap;html=1;" parent="9CeFbhL143zoWtGmTaln-55" vertex="1">
          <mxGeometry x="1470" y="45" width="80" height="80" as="geometry" />
        </mxCell>
        <mxCell id="9CeFbhL143zoWtGmTaln-97" style="edgeStyle=orthogonalEdgeStyle;rounded=0;orthogonalLoop=1;jettySize=auto;html=1;entryX=0;entryY=0.5;entryDx=0;entryDy=0;fontSize=12;" parent="9CeFbhL143zoWtGmTaln-55" source="9CeFbhL143zoWtGmTaln-83" target="9CeFbhL143zoWtGmTaln-95" edge="1">
          <mxGeometry relative="1" as="geometry" />
        </mxCell>
        <mxCell id="9CeFbhL143zoWtGmTaln-83" value="&lt;font style=&quot;font-size: 50px;&quot;&gt;&lt;b&gt;+&lt;/b&gt;&lt;/font&gt;" style="rhombus;whiteSpace=wrap;html=1;" parent="9CeFbhL143zoWtGmTaln-55" vertex="1">
          <mxGeometry x="1750" y="45" width="80" height="80" as="geometry" />
        </mxCell>
        <mxCell id="9CeFbhL143zoWtGmTaln-88" style="edgeStyle=orthogonalEdgeStyle;rounded=0;orthogonalLoop=1;jettySize=auto;html=1;fontSize=12;" parent="9CeFbhL143zoWtGmTaln-55" source="9CeFbhL143zoWtGmTaln-86" target="9CeFbhL143zoWtGmTaln-83" edge="1">
          <mxGeometry relative="1" as="geometry" />
        </mxCell>
        <mxCell id="9CeFbhL143zoWtGmTaln-86" value="Тянуть репку" style="rounded=1;whiteSpace=wrap;html=1;" parent="9CeFbhL143zoWtGmTaln-55" vertex="1">
          <mxGeometry x="1590" y="55" width="120" height="60" as="geometry" />
        </mxCell>
        <mxCell id="9CeFbhL143zoWtGmTaln-95" value="" style="ellipse;whiteSpace=wrap;html=1;" parent="9CeFbhL143zoWtGmTaln-55" vertex="1">
          <mxGeometry x="1860.0000000000002" y="65" width="40" height="40" as="geometry" />
        </mxCell>
        <mxCell id="9CeFbhL143zoWtGmTaln-102" style="edgeStyle=orthogonalEdgeStyle;rounded=0;orthogonalLoop=1;jettySize=auto;html=1;entryX=0;entryY=0.5;entryDx=0;entryDy=0;fontSize=12;" parent="9CeFbhL143zoWtGmTaln-55" source="9CeFbhL143zoWtGmTaln-96" target="9CeFbhL143zoWtGmTaln-98" edge="1">
          <mxGeometry relative="1" as="geometry" />
        </mxCell>
        <mxCell id="9CeFbhL143zoWtGmTaln-96" value="" style="ellipse;whiteSpace=wrap;html=1;" parent="9CeFbhL143zoWtGmTaln-55" vertex="1">
          <mxGeometry x="1865.0000000000002" y="70" width="30" height="30" as="geometry" />
        </mxCell>
        <mxCell id="9CeFbhL143zoWtGmTaln-103" style="edgeStyle=orthogonalEdgeStyle;rounded=0;orthogonalLoop=1;jettySize=auto;html=1;entryX=0;entryY=0.5;entryDx=0;entryDy=0;fontSize=12;" parent="9CeFbhL143zoWtGmTaln-55" source="9CeFbhL143zoWtGmTaln-98" target="9CeFbhL143zoWtGmTaln-101" edge="1">
          <mxGeometry relative="1" as="geometry" />
        </mxCell>
        <mxCell id="9CeFbhL143zoWtGmTaln-98" value="Вытянули репку?" style="rhombus;whiteSpace=wrap;html=1;fontSize=12;" parent="9CeFbhL143zoWtGmTaln-55" vertex="1">
          <mxGeometry x="1940" y="45" width="80" height="80" as="geometry" />
        </mxCell>
        <mxCell id="9CeFbhL143zoWtGmTaln-101" value="" style="ellipse;whiteSpace=wrap;html=1;" parent="9CeFbhL143zoWtGmTaln-55" vertex="1">
          <mxGeometry x="2070" y="65" width="40" height="40" as="geometry" />
        </mxCell>
        <mxCell id="9CeFbhL143zoWtGmTaln-113" style="edgeStyle=orthogonalEdgeStyle;rounded=0;orthogonalLoop=1;jettySize=auto;html=1;exitX=1;exitY=0.5;exitDx=0;exitDy=0;entryX=0;entryY=0.5;entryDx=0;entryDy=0;fontSize=12;" parent="9CeFbhL143zoWtGmTaln-55" source="9CeFbhL143zoWtGmTaln-110" target="9CeFbhL143zoWtGmTaln-112" edge="1">
          <mxGeometry relative="1" as="geometry" />
        </mxCell>
        <mxCell id="9CeFbhL143zoWtGmTaln-110" value="&lt;font style=&quot;font-size: 50px;&quot;&gt;&lt;b&gt;+&lt;/b&gt;&lt;/font&gt;" style="rhombus;whiteSpace=wrap;html=1;" parent="9CeFbhL143zoWtGmTaln-55" vertex="1">
          <mxGeometry x="2150" y="45" width="80" height="80" as="geometry" />
        </mxCell>
        <mxCell id="9CeFbhL143zoWtGmTaln-119" style="edgeStyle=orthogonalEdgeStyle;rounded=0;orthogonalLoop=1;jettySize=auto;html=1;entryX=0;entryY=0.5;entryDx=0;entryDy=0;fontSize=12;" parent="9CeFbhL143zoWtGmTaln-55" source="9CeFbhL143zoWtGmTaln-112" target="9CeFbhL143zoWtGmTaln-118" edge="1">
          <mxGeometry relative="1" as="geometry" />
        </mxCell>
        <mxCell id="9CeFbhL143zoWtGmTaln-112" value="Тянуть репку" style="rounded=1;whiteSpace=wrap;html=1;" parent="9CeFbhL143zoWtGmTaln-55" vertex="1">
          <mxGeometry x="2250" y="55" width="120" height="60" as="geometry" />
        </mxCell>
        <mxCell id="9CeFbhL143zoWtGmTaln-118" value="&lt;font style=&quot;font-size: 50px;&quot;&gt;&lt;b&gt;+&lt;/b&gt;&lt;/font&gt;" style="rhombus;whiteSpace=wrap;html=1;" parent="9CeFbhL143zoWtGmTaln-55" vertex="1">
          <mxGeometry x="2410" y="45" width="80" height="80" as="geometry" />
        </mxCell>
        <mxCell id="9CeFbhL143zoWtGmTaln-148" value="Тянуть репку" style="rounded=1;whiteSpace=wrap;html=1;" parent="9CeFbhL143zoWtGmTaln-55" vertex="1">
          <mxGeometry x="2750" y="100" width="120" height="60" as="geometry" />
        </mxCell>
        <mxCell id="9CeFbhL143zoWtGmTaln-57" style="edgeStyle=orthogonalEdgeStyle;rounded=0;orthogonalLoop=1;jettySize=auto;html=1;entryX=0.5;entryY=0;entryDx=0;entryDy=0;fontSize=12;" parent="9CeFbhL143zoWtGmTaln-1" source="9CeFbhL143zoWtGmTaln-42" target="9CeFbhL143zoWtGmTaln-56" edge="1">
          <mxGeometry relative="1" as="geometry" />
        </mxCell>
        <mxCell id="9CeFbhL143zoWtGmTaln-60" style="edgeStyle=orthogonalEdgeStyle;rounded=0;orthogonalLoop=1;jettySize=auto;html=1;entryX=0.5;entryY=1;entryDx=0;entryDy=0;fontSize=12;" parent="9CeFbhL143zoWtGmTaln-1" source="9CeFbhL143zoWtGmTaln-56" target="9CeFbhL143zoWtGmTaln-58" edge="1">
          <mxGeometry relative="1" as="geometry" />
        </mxCell>
        <mxCell id="9CeFbhL143zoWtGmTaln-72" style="edgeStyle=orthogonalEdgeStyle;rounded=0;orthogonalLoop=1;jettySize=auto;html=1;entryX=0.5;entryY=0;entryDx=0;entryDy=0;fontSize=12;" parent="9CeFbhL143zoWtGmTaln-1" source="9CeFbhL143zoWtGmTaln-66" target="9CeFbhL143zoWtGmTaln-71" edge="1">
          <mxGeometry relative="1" as="geometry" />
        </mxCell>
        <mxCell id="9CeFbhL143zoWtGmTaln-77" style="edgeStyle=orthogonalEdgeStyle;rounded=0;orthogonalLoop=1;jettySize=auto;html=1;fontSize=12;" parent="9CeFbhL143zoWtGmTaln-1" source="9CeFbhL143zoWtGmTaln-73" target="9CeFbhL143zoWtGmTaln-75" edge="1">
          <mxGeometry relative="1" as="geometry" />
        </mxCell>
        <mxCell id="9CeFbhL143zoWtGmTaln-81" style="edgeStyle=orthogonalEdgeStyle;rounded=0;orthogonalLoop=1;jettySize=auto;html=1;entryX=0.5;entryY=1;entryDx=0;entryDy=0;fontSize=12;" parent="9CeFbhL143zoWtGmTaln-1" source="9CeFbhL143zoWtGmTaln-75" target="9CeFbhL143zoWtGmTaln-80" edge="1">
          <mxGeometry relative="1" as="geometry" />
        </mxCell>
        <mxCell id="9CeFbhL143zoWtGmTaln-84" style="edgeStyle=orthogonalEdgeStyle;rounded=0;orthogonalLoop=1;jettySize=auto;html=1;entryX=0.5;entryY=0;entryDx=0;entryDy=0;fontSize=12;" parent="9CeFbhL143zoWtGmTaln-1" source="9CeFbhL143zoWtGmTaln-80" target="9CeFbhL143zoWtGmTaln-82" edge="1">
          <mxGeometry relative="1" as="geometry" />
        </mxCell>
        <mxCell id="9CeFbhL143zoWtGmTaln-85" style="edgeStyle=orthogonalEdgeStyle;rounded=0;orthogonalLoop=1;jettySize=auto;html=1;entryX=0.5;entryY=0;entryDx=0;entryDy=0;fontSize=12;" parent="9CeFbhL143zoWtGmTaln-1" source="9CeFbhL143zoWtGmTaln-82" target="9CeFbhL143zoWtGmTaln-83" edge="1">
          <mxGeometry relative="1" as="geometry" />
        </mxCell>
        <mxCell id="9CeFbhL143zoWtGmTaln-89" value="Жучка" style="swimlane;horizontal=0;whiteSpace=wrap;html=1;fontSize=12;" parent="9CeFbhL143zoWtGmTaln-1" vertex="1">
          <mxGeometry x="20" y="700" width="3280" height="250" as="geometry" />
        </mxCell>
        <mxCell id="9CeFbhL143zoWtGmTaln-92" value="Тянуть репку" style="rounded=1;whiteSpace=wrap;html=1;" parent="9CeFbhL143zoWtGmTaln-89" vertex="1">
          <mxGeometry x="1450" y="20" width="120" height="60" as="geometry" />
        </mxCell>
        <mxCell id="9CeFbhL143zoWtGmTaln-105" style="edgeStyle=orthogonalEdgeStyle;rounded=0;orthogonalLoop=1;jettySize=auto;html=1;entryX=0;entryY=0.5;entryDx=0;entryDy=0;fontSize=12;" parent="9CeFbhL143zoWtGmTaln-89" source="9CeFbhL143zoWtGmTaln-99" target="9CeFbhL143zoWtGmTaln-104" edge="1">
          <mxGeometry relative="1" as="geometry" />
        </mxCell>
        <mxCell id="9CeFbhL143zoWtGmTaln-99" value="Позвать кошку" style="rounded=1;whiteSpace=wrap;html=1;fontSize=12;" parent="9CeFbhL143zoWtGmTaln-89" vertex="1">
          <mxGeometry x="1920" y="20" width="120" height="60" as="geometry" />
        </mxCell>
        <mxCell id="9CeFbhL143zoWtGmTaln-107" style="edgeStyle=orthogonalEdgeStyle;rounded=0;orthogonalLoop=1;jettySize=auto;html=1;exitX=1;exitY=0.5;exitDx=0;exitDy=0;entryX=0;entryY=0.5;entryDx=0;entryDy=0;fontSize=12;" parent="9CeFbhL143zoWtGmTaln-89" source="9CeFbhL143zoWtGmTaln-104" target="9CeFbhL143zoWtGmTaln-106" edge="1">
          <mxGeometry relative="1" as="geometry" />
        </mxCell>
        <mxCell id="9CeFbhL143zoWtGmTaln-104" value="&lt;font style=&quot;font-size: 50px;&quot;&gt;&lt;b&gt;+&lt;/b&gt;&lt;/font&gt;" style="rhombus;whiteSpace=wrap;html=1;" parent="9CeFbhL143zoWtGmTaln-89" vertex="1">
          <mxGeometry x="2150" y="10" width="80" height="80" as="geometry" />
        </mxCell>
        <mxCell id="9CeFbhL143zoWtGmTaln-126" style="edgeStyle=orthogonalEdgeStyle;rounded=0;orthogonalLoop=1;jettySize=auto;html=1;entryX=0;entryY=0.5;entryDx=0;entryDy=0;fontSize=12;" parent="9CeFbhL143zoWtGmTaln-89" source="9CeFbhL143zoWtGmTaln-106" target="9CeFbhL143zoWtGmTaln-124" edge="1">
          <mxGeometry relative="1" as="geometry" />
        </mxCell>
        <mxCell id="9CeFbhL143zoWtGmTaln-106" value="Тянуть репку" style="rounded=1;whiteSpace=wrap;html=1;" parent="9CeFbhL143zoWtGmTaln-89" vertex="1">
          <mxGeometry x="2250" y="20" width="120" height="60" as="geometry" />
        </mxCell>
        <mxCell id="9CeFbhL143zoWtGmTaln-130" style="edgeStyle=orthogonalEdgeStyle;rounded=0;orthogonalLoop=1;jettySize=auto;html=1;entryX=0;entryY=0.5;entryDx=0;entryDy=0;fontSize=12;" parent="9CeFbhL143zoWtGmTaln-89" source="9CeFbhL143zoWtGmTaln-124" target="9CeFbhL143zoWtGmTaln-128" edge="1">
          <mxGeometry relative="1" as="geometry" />
        </mxCell>
        <mxCell id="9CeFbhL143zoWtGmTaln-124" value="&lt;font style=&quot;font-size: 50px;&quot;&gt;&lt;b&gt;+&lt;/b&gt;&lt;/font&gt;" style="rhombus;whiteSpace=wrap;html=1;" parent="9CeFbhL143zoWtGmTaln-89" vertex="1">
          <mxGeometry x="2410" y="10" width="80" height="80" as="geometry" />
        </mxCell>
        <mxCell id="9CeFbhL143zoWtGmTaln-133" style="edgeStyle=orthogonalEdgeStyle;rounded=0;orthogonalLoop=1;jettySize=auto;html=1;entryX=0;entryY=0.5;entryDx=0;entryDy=0;fontSize=12;" parent="9CeFbhL143zoWtGmTaln-89" source="9CeFbhL143zoWtGmTaln-128" target="9CeFbhL143zoWtGmTaln-132" edge="1">
          <mxGeometry relative="1" as="geometry" />
        </mxCell>
        <mxCell id="9CeFbhL143zoWtGmTaln-128" value="" style="ellipse;whiteSpace=wrap;html=1;" parent="9CeFbhL143zoWtGmTaln-89" vertex="1">
          <mxGeometry x="2520" y="30" width="40" height="40" as="geometry" />
        </mxCell>
        <mxCell id="9CeFbhL143zoWtGmTaln-129" value="" style="ellipse;whiteSpace=wrap;html=1;" parent="9CeFbhL143zoWtGmTaln-89" vertex="1">
          <mxGeometry x="2525" y="35" width="30" height="30" as="geometry" />
        </mxCell>
        <mxCell id="9CeFbhL143zoWtGmTaln-135" style="edgeStyle=orthogonalEdgeStyle;rounded=0;orthogonalLoop=1;jettySize=auto;html=1;entryX=0;entryY=0.5;entryDx=0;entryDy=0;fontSize=12;" parent="9CeFbhL143zoWtGmTaln-89" source="9CeFbhL143zoWtGmTaln-132" target="9CeFbhL143zoWtGmTaln-134" edge="1">
          <mxGeometry relative="1" as="geometry" />
        </mxCell>
        <mxCell id="9CeFbhL143zoWtGmTaln-132" value="Вытянули репку?" style="rhombus;whiteSpace=wrap;html=1;" parent="9CeFbhL143zoWtGmTaln-89" vertex="1">
          <mxGeometry x="2590" y="10" width="80" height="80" as="geometry" />
        </mxCell>
        <mxCell id="9CeFbhL143zoWtGmTaln-134" value="" style="ellipse;whiteSpace=wrap;html=1;" parent="9CeFbhL143zoWtGmTaln-89" vertex="1">
          <mxGeometry x="2700" y="30" width="40" height="40" as="geometry" />
        </mxCell>
        <mxCell id="9CeFbhL143zoWtGmTaln-147" style="edgeStyle=orthogonalEdgeStyle;rounded=0;orthogonalLoop=1;jettySize=auto;html=1;entryX=0;entryY=0.5;entryDx=0;entryDy=0;fontSize=12;" parent="9CeFbhL143zoWtGmTaln-89" source="9CeFbhL143zoWtGmTaln-144" target="9CeFbhL143zoWtGmTaln-146" edge="1">
          <mxGeometry relative="1" as="geometry" />
        </mxCell>
        <mxCell id="9CeFbhL143zoWtGmTaln-144" value="&lt;font style=&quot;font-size: 50px;&quot;&gt;&lt;b&gt;+&lt;/b&gt;&lt;/font&gt;" style="rhombus;whiteSpace=wrap;html=1;" parent="9CeFbhL143zoWtGmTaln-89" vertex="1">
          <mxGeometry x="2770" y="100" width="80" height="80" as="geometry" />
        </mxCell>
        <mxCell id="9CeFbhL143zoWtGmTaln-162" style="edgeStyle=orthogonalEdgeStyle;rounded=0;orthogonalLoop=1;jettySize=auto;html=1;entryX=0;entryY=0.5;entryDx=0;entryDy=0;fontSize=12;" parent="9CeFbhL143zoWtGmTaln-89" source="9CeFbhL143zoWtGmTaln-146" target="9CeFbhL143zoWtGmTaln-159" edge="1">
          <mxGeometry relative="1" as="geometry" />
        </mxCell>
        <mxCell id="9CeFbhL143zoWtGmTaln-146" value="Тянуть репку" style="rounded=1;whiteSpace=wrap;html=1;" parent="9CeFbhL143zoWtGmTaln-89" vertex="1">
          <mxGeometry x="2880" y="110" width="120" height="60" as="geometry" />
        </mxCell>
        <mxCell id="9CeFbhL143zoWtGmTaln-159" value="&lt;font style=&quot;font-size: 50px;&quot;&gt;&lt;b&gt;+&lt;/b&gt;&lt;/font&gt;" style="rhombus;whiteSpace=wrap;html=1;" parent="9CeFbhL143zoWtGmTaln-89" vertex="1">
          <mxGeometry x="3070" y="100" width="80" height="80" as="geometry" />
        </mxCell>
        <mxCell id="9CeFbhL143zoWtGmTaln-90" value="Кошка" style="swimlane;horizontal=0;whiteSpace=wrap;html=1;fontSize=12;" parent="9CeFbhL143zoWtGmTaln-1" vertex="1">
          <mxGeometry x="20" y="950" width="3280" height="240" as="geometry" />
        </mxCell>
        <mxCell id="9CeFbhL143zoWtGmTaln-108" value="Тянуть репку" style="rounded=1;whiteSpace=wrap;html=1;" parent="9CeFbhL143zoWtGmTaln-90" vertex="1">
          <mxGeometry x="2130" y="30" width="120" height="60" as="geometry" />
        </mxCell>
        <mxCell id="9CeFbhL143zoWtGmTaln-139" style="edgeStyle=orthogonalEdgeStyle;rounded=0;orthogonalLoop=1;jettySize=auto;html=1;fontSize=12;" parent="9CeFbhL143zoWtGmTaln-90" source="9CeFbhL143zoWtGmTaln-136" target="9CeFbhL143zoWtGmTaln-138" edge="1">
          <mxGeometry relative="1" as="geometry" />
        </mxCell>
        <mxCell id="9CeFbhL143zoWtGmTaln-136" value="Позвать мышку" style="rounded=1;whiteSpace=wrap;html=1;fontSize=12;" parent="9CeFbhL143zoWtGmTaln-90" vertex="1">
          <mxGeometry x="2570" y="30" width="120" height="60" as="geometry" />
        </mxCell>
        <mxCell id="9CeFbhL143zoWtGmTaln-143" style="edgeStyle=orthogonalEdgeStyle;rounded=0;orthogonalLoop=1;jettySize=auto;html=1;entryX=0;entryY=0.5;entryDx=0;entryDy=0;fontSize=12;" parent="9CeFbhL143zoWtGmTaln-90" source="9CeFbhL143zoWtGmTaln-138" target="9CeFbhL143zoWtGmTaln-142" edge="1">
          <mxGeometry relative="1" as="geometry" />
        </mxCell>
        <mxCell id="9CeFbhL143zoWtGmTaln-138" value="&lt;font style=&quot;font-size: 50px;&quot;&gt;&lt;b&gt;+&lt;/b&gt;&lt;/font&gt;" style="rhombus;whiteSpace=wrap;html=1;" parent="9CeFbhL143zoWtGmTaln-90" vertex="1">
          <mxGeometry x="2770" y="20" width="80" height="80" as="geometry" />
        </mxCell>
        <mxCell id="9CeFbhL143zoWtGmTaln-142" value="Тянуть репку" style="rounded=1;whiteSpace=wrap;html=1;" parent="9CeFbhL143zoWtGmTaln-90" vertex="1">
          <mxGeometry x="2900" y="30" width="120" height="60" as="geometry" />
        </mxCell>
        <mxCell id="9CeFbhL143zoWtGmTaln-91" value="Мышка" style="swimlane;horizontal=0;whiteSpace=wrap;html=1;fontSize=12;" parent="9CeFbhL143zoWtGmTaln-1" vertex="1">
          <mxGeometry x="20" y="1190" width="3280" height="260" as="geometry" />
        </mxCell>
        <mxCell id="9CeFbhL143zoWtGmTaln-167" style="edgeStyle=orthogonalEdgeStyle;rounded=0;orthogonalLoop=1;jettySize=auto;html=1;entryX=0.5;entryY=1;entryDx=0;entryDy=0;fontSize=12;" parent="9CeFbhL143zoWtGmTaln-91" source="9CeFbhL143zoWtGmTaln-140" target="9CeFbhL143zoWtGmTaln-163" edge="1">
          <mxGeometry relative="1" as="geometry" />
        </mxCell>
        <mxCell id="9CeFbhL143zoWtGmTaln-140" value="Тянуть репку" style="rounded=1;whiteSpace=wrap;html=1;fontSize=12;" parent="9CeFbhL143zoWtGmTaln-91" vertex="1">
          <mxGeometry x="2750" y="40" width="120" height="60" as="geometry" />
        </mxCell>
        <mxCell id="9CeFbhL143zoWtGmTaln-169" style="edgeStyle=orthogonalEdgeStyle;rounded=0;orthogonalLoop=1;jettySize=auto;html=1;entryX=0;entryY=0.5;entryDx=0;entryDy=0;fontSize=12;" parent="9CeFbhL143zoWtGmTaln-91" source="9CeFbhL143zoWtGmTaln-163" target="9CeFbhL143zoWtGmTaln-168" edge="1">
          <mxGeometry relative="1" as="geometry" />
        </mxCell>
        <mxCell id="9CeFbhL143zoWtGmTaln-163" value="&lt;font style=&quot;font-size: 50px;&quot;&gt;&lt;b&gt;+&lt;/b&gt;&lt;/font&gt;" style="rhombus;whiteSpace=wrap;html=1;" parent="9CeFbhL143zoWtGmTaln-91" vertex="1">
          <mxGeometry x="3070" y="40" width="80" height="80" as="geometry" />
        </mxCell>
        <mxCell id="9CeFbhL143zoWtGmTaln-168" value="" style="ellipse;whiteSpace=wrap;html=1;" parent="9CeFbhL143zoWtGmTaln-91" vertex="1">
          <mxGeometry x="3220" y="60" width="40" height="40" as="geometry" />
        </mxCell>
        <mxCell id="9CeFbhL143zoWtGmTaln-93" style="edgeStyle=orthogonalEdgeStyle;rounded=0;orthogonalLoop=1;jettySize=auto;html=1;entryX=0.5;entryY=0;entryDx=0;entryDy=0;fontSize=12;" parent="9CeFbhL143zoWtGmTaln-1" source="9CeFbhL143zoWtGmTaln-73" target="9CeFbhL143zoWtGmTaln-92" edge="1">
          <mxGeometry relative="1" as="geometry" />
        </mxCell>
        <mxCell id="9CeFbhL143zoWtGmTaln-94" style="edgeStyle=orthogonalEdgeStyle;rounded=0;orthogonalLoop=1;jettySize=auto;html=1;entryX=0.5;entryY=1;entryDx=0;entryDy=0;fontSize=12;" parent="9CeFbhL143zoWtGmTaln-1" source="9CeFbhL143zoWtGmTaln-92" target="9CeFbhL143zoWtGmTaln-83" edge="1">
          <mxGeometry relative="1" as="geometry" />
        </mxCell>
        <mxCell id="9CeFbhL143zoWtGmTaln-100" style="edgeStyle=orthogonalEdgeStyle;rounded=0;orthogonalLoop=1;jettySize=auto;html=1;entryX=0.5;entryY=0;entryDx=0;entryDy=0;fontSize=12;" parent="9CeFbhL143zoWtGmTaln-1" source="9CeFbhL143zoWtGmTaln-98" target="9CeFbhL143zoWtGmTaln-99" edge="1">
          <mxGeometry relative="1" as="geometry" />
        </mxCell>
        <mxCell id="9CeFbhL143zoWtGmTaln-109" style="edgeStyle=orthogonalEdgeStyle;rounded=0;orthogonalLoop=1;jettySize=auto;html=1;entryX=0.5;entryY=0;entryDx=0;entryDy=0;fontSize=12;" parent="9CeFbhL143zoWtGmTaln-1" source="9CeFbhL143zoWtGmTaln-104" target="9CeFbhL143zoWtGmTaln-108" edge="1">
          <mxGeometry relative="1" as="geometry" />
        </mxCell>
        <mxCell id="9CeFbhL143zoWtGmTaln-111" style="edgeStyle=orthogonalEdgeStyle;rounded=0;orthogonalLoop=1;jettySize=auto;html=1;exitX=0.5;exitY=0;exitDx=0;exitDy=0;entryX=0.5;entryY=1;entryDx=0;entryDy=0;fontSize=12;" parent="9CeFbhL143zoWtGmTaln-1" source="9CeFbhL143zoWtGmTaln-104" target="9CeFbhL143zoWtGmTaln-110" edge="1">
          <mxGeometry relative="1" as="geometry" />
        </mxCell>
        <mxCell id="9CeFbhL143zoWtGmTaln-115" style="edgeStyle=orthogonalEdgeStyle;rounded=0;orthogonalLoop=1;jettySize=auto;html=1;fontSize=12;" parent="9CeFbhL143zoWtGmTaln-1" source="9CeFbhL143zoWtGmTaln-110" target="9CeFbhL143zoWtGmTaln-114" edge="1">
          <mxGeometry relative="1" as="geometry" />
        </mxCell>
        <mxCell id="9CeFbhL143zoWtGmTaln-117" style="edgeStyle=orthogonalEdgeStyle;rounded=0;orthogonalLoop=1;jettySize=auto;html=1;fontSize=12;" parent="9CeFbhL143zoWtGmTaln-1" source="9CeFbhL143zoWtGmTaln-110" target="9CeFbhL143zoWtGmTaln-116" edge="1">
          <mxGeometry relative="1" as="geometry">
            <Array as="points">
              <mxPoint x="2140" y="585" />
            </Array>
          </mxGeometry>
        </mxCell>
        <mxCell id="9CeFbhL143zoWtGmTaln-120" style="edgeStyle=orthogonalEdgeStyle;rounded=0;orthogonalLoop=1;jettySize=auto;html=1;fontSize=12;" parent="9CeFbhL143zoWtGmTaln-1" source="9CeFbhL143zoWtGmTaln-114" target="9CeFbhL143zoWtGmTaln-118" edge="1">
          <mxGeometry relative="1" as="geometry" />
        </mxCell>
        <mxCell id="9CeFbhL143zoWtGmTaln-123" style="edgeStyle=orthogonalEdgeStyle;rounded=0;orthogonalLoop=1;jettySize=auto;html=1;entryX=1;entryY=0.5;entryDx=0;entryDy=0;fontSize=12;" parent="9CeFbhL143zoWtGmTaln-1" source="9CeFbhL143zoWtGmTaln-116" target="9CeFbhL143zoWtGmTaln-118" edge="1">
          <mxGeometry relative="1" as="geometry" />
        </mxCell>
        <mxCell id="9CeFbhL143zoWtGmTaln-125" style="edgeStyle=orthogonalEdgeStyle;rounded=0;orthogonalLoop=1;jettySize=auto;html=1;entryX=0.5;entryY=0;entryDx=0;entryDy=0;fontSize=12;" parent="9CeFbhL143zoWtGmTaln-1" source="9CeFbhL143zoWtGmTaln-118" target="9CeFbhL143zoWtGmTaln-124" edge="1">
          <mxGeometry relative="1" as="geometry" />
        </mxCell>
        <mxCell id="9CeFbhL143zoWtGmTaln-127" style="edgeStyle=orthogonalEdgeStyle;rounded=0;orthogonalLoop=1;jettySize=auto;html=1;fontSize=12;" parent="9CeFbhL143zoWtGmTaln-1" source="9CeFbhL143zoWtGmTaln-108" target="9CeFbhL143zoWtGmTaln-124" edge="1">
          <mxGeometry relative="1" as="geometry" />
        </mxCell>
        <mxCell id="9CeFbhL143zoWtGmTaln-137" style="edgeStyle=orthogonalEdgeStyle;rounded=0;orthogonalLoop=1;jettySize=auto;html=1;entryX=0.5;entryY=0;entryDx=0;entryDy=0;fontSize=12;" parent="9CeFbhL143zoWtGmTaln-1" source="9CeFbhL143zoWtGmTaln-132" target="9CeFbhL143zoWtGmTaln-136" edge="1">
          <mxGeometry relative="1" as="geometry" />
        </mxCell>
        <mxCell id="9CeFbhL143zoWtGmTaln-141" style="edgeStyle=orthogonalEdgeStyle;rounded=0;orthogonalLoop=1;jettySize=auto;html=1;entryX=0.5;entryY=0;entryDx=0;entryDy=0;fontSize=12;" parent="9CeFbhL143zoWtGmTaln-1" source="9CeFbhL143zoWtGmTaln-138" target="9CeFbhL143zoWtGmTaln-140" edge="1">
          <mxGeometry relative="1" as="geometry" />
        </mxCell>
        <mxCell id="9CeFbhL143zoWtGmTaln-145" style="edgeStyle=orthogonalEdgeStyle;rounded=0;orthogonalLoop=1;jettySize=auto;html=1;fontSize=12;" parent="9CeFbhL143zoWtGmTaln-1" source="9CeFbhL143zoWtGmTaln-138" target="9CeFbhL143zoWtGmTaln-144" edge="1">
          <mxGeometry relative="1" as="geometry" />
        </mxCell>
        <mxCell id="9CeFbhL143zoWtGmTaln-149" style="edgeStyle=orthogonalEdgeStyle;rounded=0;orthogonalLoop=1;jettySize=auto;html=1;entryX=0.5;entryY=1;entryDx=0;entryDy=0;fontSize=12;" parent="9CeFbhL143zoWtGmTaln-1" source="9CeFbhL143zoWtGmTaln-144" target="9CeFbhL143zoWtGmTaln-148" edge="1">
          <mxGeometry relative="1" as="geometry" />
        </mxCell>
        <mxCell id="9CeFbhL143zoWtGmTaln-151" style="edgeStyle=orthogonalEdgeStyle;rounded=0;orthogonalLoop=1;jettySize=auto;html=1;entryX=0;entryY=0.5;entryDx=0;entryDy=0;fontSize=12;" parent="9CeFbhL143zoWtGmTaln-1" source="9CeFbhL143zoWtGmTaln-144" target="9CeFbhL143zoWtGmTaln-150" edge="1">
          <mxGeometry relative="1" as="geometry">
            <Array as="points">
              <mxPoint x="2780" y="840" />
              <mxPoint x="2780" y="680" />
              <mxPoint x="2750" y="680" />
              <mxPoint x="2750" y="400" />
            </Array>
          </mxGeometry>
        </mxCell>
        <mxCell id="9CeFbhL143zoWtGmTaln-155" style="edgeStyle=orthogonalEdgeStyle;rounded=0;orthogonalLoop=1;jettySize=auto;html=1;fontSize=12;" parent="9CeFbhL143zoWtGmTaln-1" source="9CeFbhL143zoWtGmTaln-150" target="9CeFbhL143zoWtGmTaln-154" edge="1">
          <mxGeometry relative="1" as="geometry" />
        </mxCell>
        <mxCell id="9CeFbhL143zoWtGmTaln-158" style="edgeStyle=orthogonalEdgeStyle;rounded=0;orthogonalLoop=1;jettySize=auto;html=1;fontSize=12;" parent="9CeFbhL143zoWtGmTaln-1" source="9CeFbhL143zoWtGmTaln-154" target="9CeFbhL143zoWtGmTaln-156" edge="1">
          <mxGeometry relative="1" as="geometry" />
        </mxCell>
        <mxCell id="9CeFbhL143zoWtGmTaln-160" style="edgeStyle=orthogonalEdgeStyle;rounded=0;orthogonalLoop=1;jettySize=auto;html=1;entryX=0.5;entryY=0;entryDx=0;entryDy=0;fontSize=12;" parent="9CeFbhL143zoWtGmTaln-1" source="9CeFbhL143zoWtGmTaln-148" target="9CeFbhL143zoWtGmTaln-159" edge="1">
          <mxGeometry relative="1" as="geometry" />
        </mxCell>
        <mxCell id="9CeFbhL143zoWtGmTaln-161" style="edgeStyle=orthogonalEdgeStyle;rounded=0;orthogonalLoop=1;jettySize=auto;html=1;entryX=1;entryY=0.5;entryDx=0;entryDy=0;fontSize=12;" parent="9CeFbhL143zoWtGmTaln-1" source="9CeFbhL143zoWtGmTaln-156" target="9CeFbhL143zoWtGmTaln-159" edge="1">
          <mxGeometry relative="1" as="geometry" />
        </mxCell>
        <mxCell id="9CeFbhL143zoWtGmTaln-164" style="edgeStyle=orthogonalEdgeStyle;rounded=0;orthogonalLoop=1;jettySize=auto;html=1;entryX=0.5;entryY=0;entryDx=0;entryDy=0;fontSize=12;" parent="9CeFbhL143zoWtGmTaln-1" source="9CeFbhL143zoWtGmTaln-159" target="9CeFbhL143zoWtGmTaln-163" edge="1">
          <mxGeometry relative="1" as="geometry" />
        </mxCell>
        <mxCell id="9CeFbhL143zoWtGmTaln-166" style="edgeStyle=orthogonalEdgeStyle;rounded=0;orthogonalLoop=1;jettySize=auto;html=1;entryX=0;entryY=0.5;entryDx=0;entryDy=0;fontSize=12;" parent="9CeFbhL143zoWtGmTaln-1" source="9CeFbhL143zoWtGmTaln-142" target="9CeFbhL143zoWtGmTaln-163" edge="1">
          <mxGeometry relative="1" as="geometry" />
        </mxCell>
      </root>
    </mxGraphModel>
  </diagram>
</mxfile>
